<mxfile host="app.diagrams.net" modified="2023-09-06T18:57:26.412Z" agent="Mozilla/5.0 (X11; Linux x86_64) AppleWebKit/537.36 (KHTML, like Gecko) Chrome/115.0.0.0 Safari/537.36" version="21.3.6" etag="WmqseiqnEOzDjVFJrr2q" type="github">
  <diagram name="第 1 页" id="JCQ3mQCC7F4klXU9Xc_I">
    <mxGraphModel>
      <root>
        <mxCell id="0" />
        <mxCell id="1" parent="0" />
      </root>
    </mxGraphModel>
  </diagram>
</mxfile>
